<svg xmlns="http://www.w3.org/2000/svg" version="1.1" xmlns:xlink="http://www.w3.org/1999/xlink" xmlns:svgjs="http://svgjs.dev/svgjs" width="2000" height="2250" viewBox="0 0 2000 2250"><g transform="matrix(1,0,0,1,0.00022954974565436714,0)"><svg viewBox="0 0 320 360" data-background-color="#ffffff" preserveAspectRatio="xMidYMid meet" height="2250" width="2000" xmlns="http://www.w3.org/2000/svg" xmlns:xlink="http://www.w3.org/1999/xlink"><g id="tight-bounds" transform="matrix(1,0,0,1,-0.00003672795929787753,0)"><svg viewBox="0 0 320 360" height="360" width="320"><g><svg></svg></g><g><svg viewBox="0 0 320 360" height="360" width="320"><g><path transform="translate(-32.1528,-12.1528) scale(3.84303,3.84303)" d="M88.492 50l1.711-2.963c2.946-5.102 1.198-11.626-3.904-14.572l-2.963-1.711v-3.422c0-5.891-4.776-10.667-10.667-10.667h-3.422l-1.711-2.963c-2.946-5.102-9.47-6.85-14.572-3.904l-2.964 1.71-2.963-1.711c-5.102-2.945-11.626-1.197-14.572 3.905l-1.711 2.963h-3.422c-5.891 0-10.667 4.776-10.667 10.667v3.422l-2.963 1.711c-5.102 2.946-6.85 9.47-3.904 14.572l1.71 2.963-1.711 2.963c-2.945 5.102-1.197 11.626 3.905 14.572l2.963 1.711v3.422c0 5.891 4.776 10.667 10.667 10.667h3.422l1.711 2.963c2.946 5.102 9.47 6.85 14.572 3.904l2.963-1.71 2.963 1.711c5.102 2.946 11.626 1.198 14.572-3.904l1.711-2.963h3.422c5.891 0 10.667-4.776 10.667-10.667v-3.422l2.963-1.711c5.102-2.946 6.85-9.47 3.904-14.572zM85.832 33.273c2.252 1.3 3.862 3.399 4.535 5.91 0.673 2.511 0.328 5.135-0.972 7.386l-1.441 2.497-4.618-7.999v-9.236zM73.72 73.72l-15.038 8.682h-17.364l-15.038-8.682-8.682-15.038v-17.364l8.682-15.038 15.038-8.682h17.364l15.038 8.682 8.682 15.038v17.364zM82.401 60.549v8.158l-7.065 4.079zM72.786 75.336l-4.079 7.065h-8.158zM57.065 83.335l-7.065 4.079-7.065-4.079zM39.451 82.401h-8.158l-4.079-7.065zM24.664 72.786l-7.065-4.079v-8.158zM16.665 57.065l-4.079-7.065 4.079-7.065zM17.599 39.451v-8.158l7.065-4.079zM27.214 24.664l4.079-7.065h8.158zM42.935 16.665l7.065-4.079 7.065 4.079zM60.549 17.599h8.158l4.079 7.065zM75.336 27.214l7.065 4.079v8.158zM83.335 42.935l4.079 7.065-4.079 7.065zM72.668 17.599c2.6 0 5.044 1.012 6.883 2.851 1.838 1.838 2.851 4.283 2.851 6.883v2.883l-7.999-4.618-4.618-7.999zM53.43 10.606c2.252-1.3 4.875-1.645 7.386-0.972 2.511 0.673 4.61 2.284 5.91 4.535l1.441 2.497h-9.236l-7.999-4.618zM33.273 14.168c1.3-2.252 3.399-3.862 5.91-4.535 2.511-0.673 5.135-0.328 7.386 0.972l2.497 1.441-7.999 4.618h-9.236zM17.599 27.332c0-2.6 1.012-5.044 2.851-6.883 1.838-1.838 4.283-2.851 6.883-2.851h2.883l-4.618 7.999-7.999 4.618zM10.606 46.57c-1.3-2.252-1.645-4.875-0.972-7.386 0.673-2.511 2.284-4.61 4.535-5.91l2.497-1.441v9.236l-4.618 7.999zM14.168 66.727c-2.252-1.3-3.862-3.399-4.535-5.91-0.673-2.511-0.328-5.135 0.972-7.386l1.441-2.497 4.618 7.999v9.236zM27.332 82.401c-2.6 0-5.044-1.012-6.883-2.851-1.838-1.838-2.851-4.283-2.851-6.883v-2.883l7.999 4.618 4.618 7.999zM46.57 89.394c-2.252 1.3-4.875 1.645-7.386 0.972-2.511-0.673-4.61-2.284-5.91-4.535l-1.441-2.497h9.236l7.999 4.618zM66.727 85.832c-1.3 2.252-3.399 3.862-5.91 4.535-2.511 0.673-5.135 0.328-7.386-0.972l-2.497-1.441 7.999-4.618h9.236zM82.401 72.668c0 2.6-1.012 5.044-2.851 6.883-1.838 1.838-4.283 2.851-6.883 2.851h-2.883l4.618-7.999 7.999-4.618zM90.367 60.816c-0.673 2.511-2.284 4.61-4.535 5.91l-2.497 1.441v-9.236l4.618-7.999 1.441 2.497c1.3 2.253 1.646 4.876 0.973 7.387z" fill="#7a26c1" fill-rule="nonzero" stroke="none" stroke-width="1" stroke-linecap="butt" stroke-linejoin="miter" stroke-miterlimit="10" stroke-dasharray="" stroke-dashoffset="0" font-family="none" font-weight="none" font-size="none" text-anchor="none" style="mix-blend-mode: normal" data-fill-palette-color="tertiary"></path></g><g transform="matrix(1,0,0,1,93.13805965455634,90)"><svg viewBox="0 0 133.7238806908873 180" height="180" width="133.7238806908873"><g><svg viewBox="0 0 192 258.44299328919425" height="180" width="133.7238806908873"><g transform="matrix(1,0,0,1,0,145.35367411367895)"><svg viewBox="0 0 192 113.0893191755153" height="113.0893191755153" width="192"><g id="textblocktransform"><svg viewBox="0 0 192 113.0893191755153" height="113.0893191755153" width="192" id="textblock"><g><svg viewBox="0 0 192 113.0893191755153" height="113.0893191755153" width="192"><g transform="matrix(1,0,0,1,0,0)"><svg width="192" viewBox="1.15 -35.1 80.03999999999999 47.150000000000006" height="113.0893191755153" data-palette-color="#7a26c1"><path d="M13.65 0L1.15 0 1.15-1.05 2.15-1.35Q3.15-1.7 3.48-2.27 3.8-2.85 3.8-3.9L3.8-3.9 3.8-29.15Q3.8-30.2 3.48-30.78 3.15-31.35 2.15-31.7L2.15-31.7 1.15-32 1.15-33.05 13.65-33.05 13.65-32 12.65-31.7Q11.7-31.35 11.35-30.78 11-30.2 11-29.15L11-29.15 11-3.9Q11-2.85 11.35-2.27 11.7-1.7 12.65-1.35L12.65-1.35 13.65-1.05 13.65 0ZM27.6 0L15.95 0 15.95-0.95 16.7-1.15Q18.35-1.7 18.35-3.65L18.35-3.65Q18.35-5.35 18.37-7.08 18.4-8.8 18.4-10.5L18.4-10.5 18.4-29.5Q18.4-30.55 18.05-31.08 17.7-31.6 16.7-31.85L16.7-31.85 15.95-32.05 15.95-33 24.7-35.1 25.35-34.65 25.15-27.6 25.15-3.65Q25.2-2.65 25.57-2.02 25.95-1.4 26.9-1.15L26.9-1.15 27.6-0.95 27.6 0ZM34.24 12.05L34.24 12.05Q32.24 12.05 31.09 11.1 29.94 10.15 29.94 8.6L29.94 8.6Q29.94 7.2 30.92 6.38 31.89 5.55 33.09 5.55L33.09 5.55Q34.34 5.55 35.14 6 35.95 6.45 36.55 7.3L36.55 7.3 36.84 7.7Q37.99 9.1 38.99 7.65L38.99 7.65Q39.64 6.8 40.27 5.55 40.89 4.3 41.64 2.25L41.64 2.25 32.14-20.45Q31.79-21.4 31.34-21.93 30.89-22.45 29.99-22.8L29.99-22.8 29.14-23.1 29.14-24 41.49-24 41.49-23.1 40.45-22.8Q39.34-22.45 39.27-21.73 39.2-21 39.59-19.85L39.59-19.85 44.7-6.55 49.59-19.95Q50-21.05 49.89-21.8 49.8-22.55 48.64-22.8L48.64-22.8 47.55-23.1 47.55-24 55-24 55-23.1 53.89-22.75Q52.8-22.45 52.32-21.88 51.84-21.3 51.45-20.2L51.45-20.2 43.45 1.3Q41.45 6.8 39.37 9.43 37.3 12.05 34.24 12.05ZM63.89 0.7L63.89 0.7Q61.04 0.7 59.07-0.93 57.09-2.55 57.09-5.6L57.09-5.6Q57.09-8 59.42-10.03 61.74-12.05 66.74-13L66.74-13Q67.59-13.2 68.72-13.38 69.84-13.55 70.94-13.75L70.94-13.75 70.94-17.3Q70.94-20.7 70.09-22 69.24-23.3 67.39-23.3L67.39-23.3 67.24-23.3Q66.09-23.3 65.42-22.58 64.74-21.85 64.54-20.2L64.54-20.2 64.39-19.55Q64.24-17.55 63.34-16.63 62.44-15.7 61.09-15.7L61.09-15.7Q59.84-15.7 59.02-16.48 58.19-17.25 58.19-18.5L58.19-18.5Q58.19-20.55 59.59-21.95 60.99-23.35 63.32-24.05 65.64-24.75 68.34-24.75L68.34-24.75Q72.79-24.75 75.14-22.6 77.49-20.45 77.49-15.6L77.49-15.6 77.49-4.45Q77.49-2.3 79.54-2.3L79.54-2.3 80.69-2.3 81.19-1.75Q80.29-0.6 79.19 0.03 78.09 0.65 76.19 0.65L76.19 0.65Q74.04 0.65 72.77-0.38 71.49-1.4 71.09-3.1L71.09-3.1Q69.49-1.4 67.94-0.35 66.39 0.7 63.89 0.7ZM66.79-2.5L66.79-2.5Q67.79-2.5 68.69-2.95 69.59-3.4 70.94-4.45L70.94-4.45 70.94-12.45Q69.64-12.25 68.29-11.95L68.29-11.95Q66.14-11.45 64.82-10.1 63.49-8.75 63.49-6.45L63.49-6.45Q63.49-4.45 64.42-3.48 65.34-2.5 66.79-2.5Z" opacity="1" transform="matrix(1,0,0,1,0,0)" fill="#7a26c1" class="wordmark-text-0" data-fill-palette-color="primary" id="text-0"></path></svg></g></svg></g></svg></g></svg></g><g transform="matrix(1,0,0,1,36.672,0)"><svg viewBox="0 0 118.656 118.656" height="118.656" width="118.656"><g><svg></svg></g><g id="icon-0"><svg viewBox="0 0 118.656 118.656" height="118.656" width="118.656"><g><path transform="scale(1.18656,1.18656)" d="M30 100c-16.569 0-30-13.431-30-30v-40c0-16.569 13.431-30 30-30h40c16.569 0 30 13.431 30 30v40c0 16.569-13.431 30-30 30z" fill="#6936f5" fill-rule="nonzero" stroke="none" stroke-width="1" stroke-linecap="butt" stroke-linejoin="miter" stroke-miterlimit="10" stroke-dasharray="" stroke-dashoffset="0" font-family="none" font-weight="none" font-size="none" text-anchor="none" style="mix-blend-mode: normal" data-fill-palette-color="accent"></path></g><g transform="matrix(1,0,0,1,28.53394285714286,23.73120000000001)"><svg viewBox="0 0 61.58811428571428 71.19359999999999" height="71.19359999999999" width="61.58811428571428"><g><svg xmlns="http://www.w3.org/2000/svg" xmlns:xlink="http://www.w3.org/1999/xlink" version="1.1" x="0" y="0" viewBox="17.3 12.2 65.4 75.6" style="enable-background:new 0 0 100 100;" xml:space="preserve" height="71.19359999999999" width="61.58811428571428" class="icon-cg-0" data-fill-palette-color="quaternary" id="cg-0"><path d="M50 12.2L17.3 31.1v37.8L50 87.8l32.7-18.9V31.1L50 12.2zM32.1 37.4L50 16l17 21.4H32.1zM67.3 39.4L50 70.4l-18.2-31H67.3zM48.1 71l-27.7-4.5 9.8-25.9L48.1 71zM68.9 40.7l10.7 25.9-27.7 4.5L68.9 40.7zM69.2 37.1L52.6 16l27 15.6L69.2 37.1zM29.8 37.1l-9.4-5.5 26.8-15.5L29.8 37.1zM28.8 38.8l-9.5 25V33.3L28.8 38.8zM49 73.2v11.7L20.9 68.7 49 73.2zM51 73.2l28.1-4.5L51 84.9V73.2zM70.3 38.8l10.5-5.6v30.9L70.3 38.8z" fill="#ffffff" data-fill-palette-color="quaternary"></path></svg></g></svg></g></svg></g></svg></g><g></g></svg></g></svg></g></svg></g><defs></defs></svg><rect width="320" height="360" fill="none" stroke="none" visibility="hidden"></rect></g></svg></g></svg>